<?xml version="1.0" encoding="UTF-8" standalone="no"?>
<svg
   xmlns:dc="http://purl.org/dc/elements/1.1/"
   xmlns:cc="http://creativecommons.org/ns#"
   xmlns:rdf="http://www.w3.org/1999/02/22-rdf-syntax-ns#"
   xmlns:svg="http://www.w3.org/2000/svg"
   xmlns="http://www.w3.org/2000/svg"
   xmlns:sodipodi="http://sodipodi.sourceforge.net/DTD/sodipodi-0.dtd"
   xmlns:inkscape="http://www.inkscape.org/namespaces/inkscape"
   height="512px"
   id="Layer_1"
   style="enable-background:new 0 0 512 512;"
   version="1.1"
   viewBox="0 0 512 512"
   width="512px"
   xml:space="preserve"
   inkscape:version="0.48.5 r10040"
   sodipodi:docname="people.svg"><metadata
     id="metadata3084"><rdf:RDF><cc:Work
         rdf:about=""><dc:format>image/svg+xml</dc:format><dc:type
           rdf:resource="http://purl.org/dc/dcmitype/StillImage" /></cc:Work></rdf:RDF></metadata><defs
     id="defs3082" /><sodipodi:namedview
     pagecolor="#ffffff"
     bordercolor="#666666"
     borderopacity="1"
     objecttolerance="10"
     gridtolerance="10"
     guidetolerance="10"
     inkscape:pageopacity="0"
     inkscape:pageshadow="2"
     inkscape:window-width="1440"
     inkscape:window-height="852"
     id="namedview3080"
     showgrid="false"
     inkscape:zoom="0.4609375"
     inkscape:cx="-134.50847"
     inkscape:cy="256"
     inkscape:window-x="0"
     inkscape:window-y="29"
     inkscape:window-maximized="1"
     inkscape:current-layer="g3074" /><g
     id="g3074"><path
       d="m 449.89564,366.30727 c -47.41453,-18.98106 -44.55133,-11.36446 -44.55133,-46.54592 0,-22.72893 10.65109,-14.38693 17.40823,-57.6686 2.63414,-17.04669 4.81017,-5.68223 10.42203,-33.00529 2.97773,-14.26602 -2.0615,-15.35411 -1.37433,-22.12443 0.57264,-6.77031 1.14528,-12.93614 2.29056,-26.83947 1.37433,-17.40938 -13.28523,-62.86722 -65.73899,-62.86722 -52.45375,0 -67.11331,45.45784 -65.73898,62.86722 1.03075,14.02423 1.71792,20.06916 2.29056,26.83947 0.57264,6.77032 -4.35206,7.85841 -1.37434,22.12443 5.61187,27.32306 7.7879,15.83771 10.42204,33.00529 6.75714,43.28167 17.2937,35.06057 17.2937,57.6686 0,16.2004 3.55036,22.97071 -17.06465,33.24709 6.18451,2.29707 13.39976,5.07773 22.10388,8.58379 62.30314,25.02599 60.81428,49.32659 62.41767,60.81195 1.14528,7.85841 1.71792,70.48384 1.94698,92.85006 h 111.8937 c 0,0 0,-97.3233 -1.71792,-108.68776 -1.2598,-8.94649 -12.59806,-20.79455 -60.92881,-40.25921 z"
       id="path3076"
       style="fill:#000000;fill-opacity:0.45338984"
       inkscape:connector-curvature="0" /><path
       d="m 371.67312,515.25424 c 0,0 0,-17.04669 -0.22906,-36.75315 -0.22905,-22.48712 -0.80169,-48.3594 -1.94697,-56.09691 -1.71792,-11.48536 -16.37748,-26.83947 -78.5661,-51.86546 -8.58959,-3.38516 -15.80484,-6.16582 -22.10387,-8.58379 -38.13778,-14.26603 -35.38911,-18.98107 -35.38911,-58.03129 0,-29.37834 13.74334,-10.27637 22.44746,-66.01059 3.43583,-22.00353 6.1845,-7.37481 13.39976,-42.55627 3.89394,-18.37658 -2.63414,-19.82736 -1.83245,-28.65295 0.8017,-8.82559 1.60339,-16.684 2.97773,-34.69787 1.83244,-22.36623 -17.06465,-81.122906 -84.86514,-81.122906 -67.80048,0 -86.583049,58.635776 -84.86513,81.122906 1.37433,18.01387 2.17603,25.87228 3.09225,34.69787 0.8017,8.82559 -5.726392,10.15547 -1.83244,28.65295 7.32978,35.18146 10.07845,20.55274 13.51428,42.55627 8.70412,55.73422 22.33293,36.63225 22.33293,66.01059 0,45.45784 3.77942,42.07268 -57.492978,66.61508 -62.188616,25.02599 -76.8481802,40.3801 -78.5660979,51.86546 -2.29055686,14.62872 -2.29055686,92.85006 -2.29055686,92.85006 H 185.56537 371.67312 z"
       id="path3078"
       style="fill:#000000;fill-opacity:0.45338984"
       inkscape:connector-curvature="0" /></g></svg>