<?xml version="1.0" encoding="UTF-8" standalone="no"?>
<svg
   xmlns:dc="http://purl.org/dc/elements/1.1/"
   xmlns:cc="http://creativecommons.org/ns#"
   xmlns:rdf="http://www.w3.org/1999/02/22-rdf-syntax-ns#"
   xmlns:svg="http://www.w3.org/2000/svg"
   xmlns="http://www.w3.org/2000/svg"
   xmlns:sodipodi="http://sodipodi.sourceforge.net/DTD/sodipodi-0.dtd"
   xmlns:inkscape="http://www.inkscape.org/namespaces/inkscape"
   height="32px"
   version="1.1"
   viewBox="0 0 32 32"
   width="32px"
   id="svg3888"
   inkscape:version="0.48.5 r10040"
   sodipodi:docname="checklist.svg">
  <metadata
     id="metadata3901">
    <rdf:RDF>
      <cc:Work
         rdf:about="">
        <dc:format>image/svg+xml</dc:format>
        <dc:type
           rdf:resource="http://purl.org/dc/dcmitype/StillImage" />
      </cc:Work>
    </rdf:RDF>
  </metadata>
  <sodipodi:namedview
     pagecolor="#ffffff"
     bordercolor="#666666"
     borderopacity="1"
     objecttolerance="10"
     gridtolerance="10"
     guidetolerance="10"
     inkscape:pageopacity="0"
     inkscape:pageshadow="2"
     inkscape:window-width="1440"
     inkscape:window-height="852"
     id="namedview3899"
     showgrid="false"
     inkscape:zoom="7.375"
     inkscape:cx="-8.4067797"
     inkscape:cy="16"
     inkscape:window-x="0"
     inkscape:window-y="29"
     inkscape:window-maximized="1"
     inkscape:current-layer="icon-86-document-list" />
  <title
     id="title3890" />
  <desc
     id="desc3892" />
  <defs
     id="defs3894" />
  <g
     fill="none"
     fill-rule="evenodd"
     id="Page-1"
     stroke="none"
     stroke-width="1"
     style="fill:#000000">
    <g
       fill="#929292"
       id="icon-86-document-list"
       style="fill:#000000">
      <path
         d="M 15.5,3 5.0027601,3 C 3.8966662,3 3,3.8983383 3,5.0073299 L 3,27.99267 C 3,29.101288 3.8909254,30 4.9974219,30 L 20.002578,30 C 21.105724,30 22,29.101788 22,28.009205 L 22,10.5 22,10 16,3 l -0.5,0 0,0 0,0 z M 15,4 4.9955775,4 C 4.4457352,4 4,4.4552629 4,4.995457 L 4,28.004543 C 4,28.554319 4.4547089,29 4.9999602,29 L 20.00004,29 C 20.552303,29 21,28.555054 21,28.006602 L 21,11 16.997913,11 C 15.894496,11 15,10.113445 15,8.994081 L 15,4 15,4 z m 1,0.5 0,4.4912152 C 16,9.5483517 16.450651,10 16.996739,10 L 20.699951,10 16,4.5 l 0,0 z m -5,9.5 0,1 8,0 0,-1 -8,0 0,0 z m -5,-1 0,3 3,0 0,-3 -3,0 0,0 z m 1,1 0,1 1,0 0,-1 -1,0 0,0 z m -1,4 0,3 3,0 0,-3 -3,0 0,0 z m 1,1 0,1 1,0 0,-1 -1,0 0,0 z m 4,0 0,1 8,0 0,-1 -8,0 0,0 z m -5,4 0,3 3,0 0,-3 -3,0 0,0 z m 1,1 0,1 1,0 0,-1 -1,0 0,0 z m 4,0 0,1 8,0 0,-1 -8,0 0,0 z"
         id="document-list"
         style="fill:#000000;fill-opacity:0.45490196"
         inkscape:connector-curvature="0" />
    </g>
  </g>
</svg>
