<?xml version="1.0" encoding="UTF-8" standalone="no"?>
<svg
   xmlns:dc="http://purl.org/dc/elements/1.1/"
   xmlns:cc="http://creativecommons.org/ns#"
   xmlns:rdf="http://www.w3.org/1999/02/22-rdf-syntax-ns#"
   xmlns:svg="http://www.w3.org/2000/svg"
   xmlns="http://www.w3.org/2000/svg"
   xmlns:sodipodi="http://sodipodi.sourceforge.net/DTD/sodipodi-0.dtd"
   xmlns:inkscape="http://www.inkscape.org/namespaces/inkscape"
   height="32px"
   version="1.1"
   viewBox="0 0 32 32"
   width="32px"
   id="svg3888"
   inkscape:version="0.48.5 r10040"
   sodipodi:docname="checklist.svg">
  <metadata
     id="metadata3901">
    <rdf:RDF>
      <cc:Work
         rdf:about="">
        <dc:format>image/svg+xml</dc:format>
        <dc:type
           rdf:resource="http://purl.org/dc/dcmitype/StillImage" />
      </cc:Work>
    </rdf:RDF>
  </metadata>
  <sodipodi:namedview
     pagecolor="#ffffff"
     bordercolor="#666666"
     borderopacity="1"
     objecttolerance="10"
     gridtolerance="10"
     guidetolerance="10"
     inkscape:pageopacity="0"
     inkscape:pageshadow="2"
     inkscape:window-width="1440"
     inkscape:window-height="852"
     id="namedview3899"
     showgrid="false"
     inkscape:zoom="7.375"
     inkscape:cx="-8.4067797"
     inkscape:cy="16"
     inkscape:window-x="0"
     inkscape:window-y="29"
     inkscape:window-maximized="1"
     inkscape:current-layer="icon-86-document-list" />
  <title
     id="title3890" />
  <desc
     id="desc3892" />
  <defs
     id="defs3894" />
  <g
     fill="none"
     fill-rule="evenodd"
     id="Page-1"
     stroke="none"
     stroke-width="1"
     style="fill:#000000">
    <g
       fill="#929292"
       id="icon-86-document-list"
       style="fill:#000000">
      <path
         d="M19.5,3 L9.00276013,3 C7.89666625,3 7,3.89833832 7,5.00732994 L7,27.9926701 C7,29.1012878 7.89092539,30 8.99742191,30 L24.0025781,30 C25.1057238,30 26,29.1017876 26,28.0092049 L26,10.5 L26,10 L20,3 L19.5,3 L19.5,3 L19.5,3 Z M19,4 L8.9955775,4 C8.44573523,4 8,4.45526288 8,4.99545703 L8,28.004543 C8,28.5543187 8.45470893,29 8.9999602,29 L24.0000398,29 C24.5523026,29 25,28.5550537 25,28.0066023 L25,11 L20.9979131,11 C19.8944962,11 19,10.1134452 19,8.99408095 L19,4 L19,4 Z M20,4.5 L20,8.99121523 C20,9.54835167 20.4506511,10 20.9967388,10 L24.6999512,10 L20,4.5 L20,4.5 Z M15,14 L15,15 L23,15 L23,14 L15,14 L15,14 Z M10,13 L10,16 L13,16 L13,13 L10,13 L10,13 Z M11,14 L11,15 L12,15 L12,14 L11,14 L11,14 Z M10,18 L10,21 L13,21 L13,18 L10,18 L10,18 Z M11,19 L11,20 L12,20 L12,19 L11,19 L11,19 Z M15,19 L15,20 L23,20 L23,19 L15,19 L15,19 Z M10,23 L10,26 L13,26 L13,23 L10,23 L10,23 Z M11,24 L11,25 L12,25 L12,24 L11,24 L11,24 Z M15,24 L15,25 L23,25 L23,24 L15,24 L15,24 Z"
         id="document-list"
         style="fill:#000000;fill-opacity:0.45490196" />
    </g>
  </g>
</svg>
